<?xml version="1.0" standalone="no"?>
<svg viewBox="0 0 200 200" xmlns="http://www.w3.org/2000/svg">
  <path fill="#F2F4F8" d="M29.8,-41.7C41.6,-38.7,56.2,-35.6,63.4,-26.9C70.6,-18.2,70.4,-4.1,70,11.2C69.5,26.4,68.8,42.7,60.7,53.6C52.7,64.5,37.5,70.1,23,71C8.5,72,-5.3,68.4,-17.3,63.1C-29.4,57.7,-39.8,50.6,-51.9,42C-64,33.4,-77.9,23.3,-76.5,12.9C-75,2.5,-58.3,-8.2,-48.3,-18.7C-38.3,-29.2,-35.1,-39.4,-28.2,-44.6C-21.3,-49.8,-10.6,-49.9,-0.8,-48.7C9,-47.4,18,-44.7,29.8,-41.7Z" transform="translate(100 100)" />
</svg>
