<?xml version="1.0" standalone="no"?>
<!DOCTYPE svg PUBLIC "-//W3C//DTD SVG 20010904//EN"
 "http://www.w3.org/TR/2001/REC-SVG-20010904/DTD/svg10.dtd">
<svg version="1.0" xmlns="http://www.w3.org/2000/svg"
 width="167.000000pt" height="167.000000pt" viewBox="0 0 167.000000 167.000000"
 preserveAspectRatio="xMidYMid meet">
<metadata>
Created by potrace 1.14, written by Peter Selinger 2001-2017
</metadata>
<g transform="translate(0.000000,167.000000) scale(0.100000,-0.100000)"
fill="#000000" stroke="none">
<path d="M397 1563 c-12 -3 -16 -11 -12 -23 27 -84 22 -193 -16 -381 -11 -52
-21 -104 -23 -115 -10 -52 -70 -247 -112 -361 -74 -204 -159 -383 -207 -435
-27 -29 -25 -40 19 -95 69 -85 129 -55 188 95 13 34 27 75 31 92 6 25 10 29
29 24 18 -4 29 1 45 21 11 15 19 31 16 35 -2 3 1 7 8 7 7 0 24 3 39 6 25 7 28
4 38 -35 22 -86 45 -133 85 -175 37 -38 46 -43 87 -43 57 0 86 9 67 21 -25 15
-4 160 36 255 16 39 63 49 125 28 43 -15 79 -13 155 7 22 6 54 13 70 16 51 7
453 113 495 129 46 19 99 75 101 107 6 81 -15 133 -64 162 -41 24 -151 29
-227 9 -130 -34 -514 -165 -543 -185 -18 -12 73 83 202 212 128 129 237 243
241 254 4 11 3 29 -2 39 -41 77 -249 163 -292 121 -7 -8 -16 -12 -19 -9 -12
12 -59 -11 -98 -49 -44 -43 -99 -150 -103 -198 -1 -15 -21 -50 -46 -80 -25
-28 -50 -59 -57 -68 -10 -13 -13 -3 -13 54 -4 262 -34 419 -98 504 -36 48 -90
68 -145 54z m5 -679 c1 -104 4 -223 8 -264 4 -42 2 -83 -3 -94 -6 -13 -6 -16
2 -12 6 4 11 1 11 -6 0 -14 -107 -44 -117 -34 -3 3 1 43 10 88 9 46 19 99 22
118 3 19 10 60 15 90 5 30 11 71 14 90 21 162 30 219 33 216 2 -2 4 -88 5
-192z m288 -229 c0 -42 -14 -75 -31 -75 -11 0 -19 6 -20 13 -1 6 -2 21 -3 32
-1 22 18 42 40 42 8 0 14 -6 14 -12z m-34 -201 c-3 -9 -6 -25 -6 -36 0 -32
-13 -12 -15 22 -1 20 3 30 13 30 9 0 12 -6 8 -16z"/>
<path d="M1283 1410 c-22 -44 -37 -82 -33 -85 11 -7 121 128 118 145 -2 8 -12
16 -24 18 -16 2 -28 -12 -61 -78z"/>
<path d="M1232 1458 c-7 -7 -12 -37 -12 -67 0 -64 12 -58 29 13 12 50 4 75
-17 54z"/>
<path d="M1320 1354 c-25 -20 -46 -40 -48 -45 -4 -10 62 18 97 41 20 13 21 18
9 27 -11 9 -23 5 -58 -23z"/>
</g>
</svg>
